<svg version="1.1" xmlns="http://www.w3.org/2000/svg" xmlns:xlink="http://www.w3.org/1999/xlink" width="236.5" height="236.5" viewBox="0,0,236.5,236.5"><g transform="translate(-121.75,-61.75)"><g data-paper-data="{&quot;isPaintingLayer&quot;:true}" fill="#000000" fill-rule="nonzero" stroke="#000000" stroke-width="0" stroke-linecap="butt" stroke-linejoin="miter" stroke-miterlimit="10" stroke-dasharray="" stroke-dashoffset="0" style="mix-blend-mode: normal"><path d="M121.75,180c0,-65.30767 52.94233,-118.25 118.25,-118.25c65.30767,0 118.25,52.94233 118.25,118.25c0,65.30767 -52.94233,118.25 -118.25,118.25c-65.30767,0 -118.25,-52.94233 -118.25,-118.25zM265.15,161.54679c-4.83532,-7.70297 -4.99357,-14.06515 -10.8,-21.4c-5.80642,-7.33485 -12.61684,-13.78533 -19.88197,-17.35835c-5.52471,-2.71707 -16.53115,-3.48552 -20.8236,-3.68666c-1.11098,-0.05206 -1.90554,-0.62053 -2.13803,-1.57603c-1.10576,-4.54452 -4.45464,-18.16191 -6.37016,-24.35442c-1.26532,-4.09055 -4.98208,-12.25364 -5.30191,-13.15869c-0.6674,-1.88856 -1.36751,-1.21022 -2.27067,0.06809c-3.12956,4.42951 -11.26479,15.77453 -21.5194,28.77593c-7.06271,8.95453 -16.79754,18.77413 -22.88226,27.48447c-21.8325,31.25341 -14.77963,60.70509 -12.00136,69.2422c0.52219,1.60458 0.97854,1.58358 1.26301,0.0377c1.50915,-8.20114 8.62729,-34.95373 38.39302,-46.27424c3.80848,-1.44844 14.07888,-7.21834 41.13796,-4.79611c3.14783,0.28178 11.75736,2.38352 22.30081,9.65471c11.3453,7.82418 17.93305,19.03734 17.93305,19.03734c0,0 -14.5472,-4.9741 -21.41231,-6.73126c-6.29754,-1.61189 -38.229,-7.37896 -48.09545,-3.19704c-0.76444,0.32401 -23.92352,6.15581 -30.11195,20.04117c-2.20076,4.93797 -10.65902,19.48245 -7.01022,35.14957c0.05838,0.25068 2.22283,10.37456 8.34237,18.32134c6.62306,8.60064 16.11657,16.47639 20.00942,19.55244c1.11247,0.87905 1.66112,0.51156 1.53044,-0.88822c-0.46381,-4.96774 3.31065,-41.38335 26.0489,-50.31181c24.38435,-11.2481 42.92781,-4.60044 47.65527,-5.57443c24.08469,1.91286 31.72279,-10.6081 31.72279,-10.6081c0,0 -5.0037,-1.72091 -6.89572,-4.25458c-1.89202,-2.53367 -2.27098,-6.83053 -2.27098,-6.83053l13.4479,0.15116c0,0 -10.59723,-3.47578 -15.77696,-8.05407c-5.17973,-4.57829 -9.38665,-10.75861 -14.22197,-18.46158zM232.42842,115.04307c5.9802,2.12782 10.8529,5.95718 13.57582,7.67715c0.62029,0.39181 0.95726,-0.02317 0.9209,-1.12542c-0.15111,-4.58028 -0.87547,-17.12222 -0.89106,-23.55901c-0.01415,-5.84095 0.32384,-15.73289 0.45473,-19.33102c0.03127,-0.85971 -0.2939,-1.00617 -0.8865,-0.39329c-2.70343,2.79597 -10.56753,10.98121 -14.41496,15.53821c-3.57547,4.23488 -10.08865,13.23487 -12.72973,16.40418c-0.54611,0.65534 -0.49858,1.05637 0.12745,1.10607c2.52469,0.20044 7.86316,1.55533 13.84336,3.68315zM272.74363,277.36962c1.82072,2.30225 23.11428,-11.35122 37.49703,-24.55746c12.67975,-11.64255 13.86123,-15.77929 19.93154,-27.72825c6.07032,-11.94896 7.72124,-16.67043 9.50022,-30.20594c2.29697,-17.47671 -1.21451,-34.79406 -1.21451,-34.79406c0,0 -2.47339,19.08802 -15.72063,37.06453c-13.35595,18.12404 -36.51969,31.46518 -45.70794,45.5069c-4.27913,6.53947 -10.95142,26.28571 -4.28571,34.71429zM204.21038,276.51248c6.97965,3.71263 32.67782,11.14717 51.53565,5.60853c0.63916,-0.18773 1.81894,-1.33205 1.55977,-2.54014c-1.0235,-4.7709 -3.74769,-17.51534 -0.9537,-28.44936c3.32972,-13.03056 12.86638,-24.16912 15.74196,-27.30822c0.5273,-0.57562 0.44654,-0.82554 -0.25952,-0.75102c-2.35891,0.24896 -8.31173,0.69665 -15.5426,-0.10787c-9.76114,-1.08604 -24.24581,-3.89598 -42.36726,7.54807c-24.11453,22.45539 -9.93402,45.88312 -9.71429,46z"/></g></g></svg>