<svg version="1.1" xmlns="http://www.w3.org/2000/svg" xmlns:xlink="http://www.w3.org/1999/xlink" width="18.5" height="12.50001" viewBox="0,0,18.5,12.50001"><defs><radialGradient cx="242.41" cy="175.51889" r="8" gradientUnits="userSpaceOnUse" id="color-1"><stop offset="0" stop-color="#adadad"/><stop offset="1" stop-color="#6a6969"/></radialGradient><radialGradient cx="242.41" cy="175.51889" r="8" gradientUnits="userSpaceOnUse" id="color-2"><stop offset="0" stop-color="#adadad"/><stop offset="1" stop-color="#6a6969"/></radialGradient></defs><g transform="translate(-230.75,-173.75)"><g data-paper-data="{&quot;isPaintingLayer&quot;:true}" fill-rule="evenodd" stroke-linecap="butt" stroke-linejoin="miter" stroke-miterlimit="10" stroke-dasharray="" stroke-dashoffset="0" style="mix-blend-mode: normal"><path d="M232,177c0,-1.10457 0.89543,-2 2,-2h7.5c1.00339,-0.00012 1.85155,0.74326 1.983,1.738l3.11,-1.382c0.30928,-0.13781 0.6673,-0.10975 0.95134,0.07456c0.28404,0.18431 0.45551,0.49984 0.45566,0.83844v7.462c-0.00029,0.33832 -0.17164,0.65356 -0.45539,0.83782c-0.28375,0.18426 -0.64142,0.21255 -0.95061,0.07519l-3.111,-1.382c-0.13145,0.99474 -0.97961,1.73812 -1.983,1.738h-7.5c-1.10457,0 -2,-0.89543 -2,-2z" fill="url(#color-1)" stroke="#393939" stroke-width="2.5"/><path d="M232,177c0,-1.10457 0.89543,-2 2,-2h7.5c1.00339,-0.00012 1.85155,0.74326 1.983,1.738l3.11,-1.382c0.30928,-0.13781 0.6673,-0.10975 0.95134,0.07456c0.28404,0.18431 0.45551,0.49984 0.45566,0.83844v7.462c-0.00029,0.33832 -0.17164,0.65356 -0.45539,0.83782c-0.28375,0.18426 -0.64142,0.21255 -0.95061,0.07519l-3.111,-1.382c-0.13145,0.99474 -0.97961,1.73812 -1.983,1.738h-7.5c-1.10457,0 -2,-0.89543 -2,-2z" fill="url(#color-2)" stroke="none" stroke-width="1"/></g></g></svg>