<svg version="1.1" xmlns="http://www.w3.org/2000/svg" xmlns:xlink="http://www.w3.org/1999/xlink" width="16.5" height="14.5" viewBox="0,0,16.5,14.5"><defs><radialGradient cx="245.73684" cy="176.55265" r="7.04069" gradientUnits="userSpaceOnUse" id="color-1"><stop offset="0" stop-color="#181818"/><stop offset="1" stop-color="#0e0d0d"/></radialGradient></defs><g transform="translate(-232.25,-173.25)"><g data-paper-data="{&quot;isPaintingLayer&quot;:true}" fill-rule="nonzero" stroke-linecap="butt" stroke-linejoin="miter" stroke-miterlimit="10" stroke-dasharray="" stroke-dashoffset="0" style="mix-blend-mode: normal"><path d="M246.5,173.5c1.10457,0 2,0.89543 2,2v10c0,1.10457 -0.89543,2 -2,2h-12c-1.10457,0 -2,-0.89543 -2,-2v-10c0,-1.10457 0.89543,-2 2,-2zM234.5,174.5c-0.55228,0 -1,0.44772 -1,1v10c0,0.55228 0.44772,1 1,1h12c0.55228,0 1,-0.44772 1,-1v-10c0,-0.55228 -0.44772,-1 -1,-1z" fill="#000000" stroke="#000000" stroke-width="0.5"/><path d="M246.53536,174.46464c0.55228,0 1.00533,0.45401 1.00533,1.00629v10.05812c0,0.55228 -0.45305,1.00629 -1.00533,1.00629h-12.07071c-0.55228,0 -1.00533,-0.45401 -1.00533,-1.00629v-10.05812c0,-0.55228 0.45305,-1.00629 1.00533,-1.00629z" data-paper-data="{&quot;noHover&quot;:false,&quot;origItem&quot;:[&quot;Path&quot;,{&quot;applyMatrix&quot;:true,&quot;segments&quot;:[[[234,174],[0,0],[-0.55228,0]],[[233,175],[0,-0.55228],[0,0]],[[233,185],[0,0],[0,0.55228]],[[234,186],[-0.55228,0],[0,0]],[[246,186],[0,0],[0.55228,0]],[[247,185],[0,0.55228],[0,0]],[[247,175],[0,0],[0,-0.55228]],[[246,174],[0.55228,0],[0,0]]],&quot;closed&quot;:true,&quot;fillColor&quot;:[0,0,0,1]}]}" fill="url(#color-1)" stroke="none" stroke-width="0.5"/><path d="M246.5,173.5c1.10457,0 2,0.89543 2,2v10c0,1.10457 -0.89543,2 -2,2h-12c-1.10457,0 -2,-0.89543 -2,-2v-10c0,-1.10457 0.89543,-2 2,-2zM234.5,174.5c-0.55228,0 -1,0.44772 -1,1v10c0,0.55228 0.44772,1 1,1h12c0.55228,0 1,-0.44772 1,-1v-10c0,-0.55228 -0.44772,-1 -1,-1z" fill="#000000" stroke="#000000" stroke-width="0"/><path d="M239.85521,183.40388c0,0.35634 0.28887,0.64521 0.64521,0.64521h3.87129c0.35634,0 0.64521,-0.28887 0.64521,-0.64521c0,-0.35634 -0.28887,-0.64521 -0.64521,-0.64521h-3.87129c-0.35634,0 -0.64521,0.28887 -0.64521,0.64521M239.6668,179.721c0.12135,0.12104 0.18956,0.28541 0.18956,0.45681c0,0.17141 -0.0682,0.33576 -0.18956,0.45681l-2.58086,2.58086c-0.25229,0.25229 -0.66134,0.25229 -0.91363,0c-0.25229,-0.25229 -0.25229,-0.66134 0,-0.91363l2.12534,-2.12405l-2.12534,-2.12405c-0.25229,-0.25229 -0.25229,-0.66134 0,-0.91363c0.25229,-0.25229 0.66134,-0.25229 0.91363,0z" fill="#00ff00" stroke="none" stroke-width="1"/></g></g></svg>