<svg version="1.1" xmlns="http://www.w3.org/2000/svg" xmlns:xlink="http://www.w3.org/1999/xlink" width="18.5" height="18.5" viewBox="0,0,18.5,18.5"><defs><radialGradient cx="245.9125" cy="173.32084" r="8" gradientUnits="userSpaceOnUse" id="color-1"><stop offset="0" stop-color="#ffffff"/><stop offset="1" stop-color="#d6dadc"/></radialGradient><radialGradient cx="245.9125" cy="173.32084" r="8" gradientUnits="userSpaceOnUse" id="color-2"><stop offset="0" stop-color="#ffffff"/><stop offset="1" stop-color="#d6dadc"/></radialGradient></defs><g transform="translate(-230.75,-170.75)"><g data-paper-data="{&quot;isPaintingLayer&quot;:true}" fill-rule="nonzero" stroke-linecap="butt" stroke-linejoin="miter" stroke-miterlimit="10" stroke-dasharray="" stroke-dashoffset="0" style="mix-blend-mode: normal"><path d="M246,172c1.10457,0 2,0.89543 2,2v12c0,1.10457 -0.89543,2 -2,2h-12c-1.10457,0 -2,-0.89543 -2,-2v-12c0,-1.10457 0.89543,-2 2,-2zM237.495,178.033h0.825c0.138,0 0.248,-0.113 0.266,-0.25c0.089,-0.656 0.539,-1.134 1.342,-1.134c0.686,0 1.314,0.343 1.314,1.168c0,0.635 -0.375,0.927 -0.965,1.371c-0.673,0.489 -1.206,1.06 -1.168,1.987l0.004,0.217c0.00218,0.1365 0.11347,0.24601 0.25,0.246h0.81c0.13807,0 0.25,-0.11193 0.25,-0.25v-0.105c0,-0.718 0.273,-0.927 1.01,-1.486c0.609,-0.463 1.244,-0.977 1.244,-2.057c0,-1.51 -1.276,-2.24 -2.672,-2.24c-1.268,0 -2.655,0.591 -2.749,2.286c-0.00276,0.0651 0.02141,0.12846 0.06681,0.17518c0.0454,0.04673 0.10805,0.0727 0.17319,0.07182zM239.821,184.476c0.609,0 1.029,-0.394 1.029,-0.927c0,-0.552 -0.419,-0.94 -1.028,-0.94c-0.585,0 -1.01,0.388 -1.01,0.94c0,0.533 0.425,0.927 1.009,0.927" fill="url(#color-1)" stroke="#353c4b" stroke-width="2.5"/><path d="M246,172c1.10457,0 2,0.89543 2,2v12c0,1.10457 -0.89543,2 -2,2h-12c-1.10457,0 -2,-0.89543 -2,-2v-12c0,-1.10457 0.89543,-2 2,-2zM237.495,178.033h0.825c0.138,0 0.248,-0.113 0.266,-0.25c0.089,-0.656 0.539,-1.134 1.342,-1.134c0.686,0 1.314,0.343 1.314,1.168c0,0.635 -0.375,0.927 -0.965,1.371c-0.673,0.489 -1.206,1.06 -1.168,1.987l0.004,0.217c0.00218,0.13651 0.11348,0.24602 0.25,0.246h0.81c0.13807,0 0.25,-0.11193 0.25,-0.25v-0.105c0,-0.718 0.273,-0.927 1.01,-1.486c0.609,-0.463 1.244,-0.977 1.244,-2.057c0,-1.51 -1.276,-2.24 -2.672,-2.24c-1.268,0 -2.655,0.591 -2.749,2.286c-0.00276,0.06509 0.02141,0.12845 0.06681,0.17518c0.0454,0.04673 0.10804,0.0727 0.17319,0.07182zM239.821,184.476c0.609,0 1.029,-0.394 1.029,-0.927c0,-0.552 -0.419,-0.94 -1.028,-0.94c-0.585,0 -1.01,0.388 -1.01,0.94c0,0.533 0.425,0.927 1.009,0.927" fill="url(#color-2)" stroke="none" stroke-width="1"/></g></g></svg>