<svg version="1.1" xmlns="http://www.w3.org/2000/svg" xmlns:xlink="http://www.w3.org/1999/xlink" width="15.88889" height="14.02778" viewBox="0,0,15.88889,14.02778"><defs><linearGradient x1="240" y1="173.48611" x2="240" y2="186.51389" gradientUnits="userSpaceOnUse" id="color-1"><stop offset="0" stop-color="#67c2ff"/><stop offset="1" stop-color="#8fd7ff"/></linearGradient><linearGradient x1="240.002" y1="179.46393" x2="240.002" y2="186.02382" gradientUnits="userSpaceOnUse" id="color-2"><stop offset="0" stop-color="#00a916"/><stop offset="1" stop-color="#07950c"/></linearGradient><radialGradient cx="236.68334" cy="177.47593" r="1.55" gradientUnits="userSpaceOnUse" id="color-3"><stop offset="0" stop-color="#fdff8f"/><stop offset="1" stop-color="#ffce66"/></radialGradient></defs><g transform="translate(-232.05555,-172.98611)"><g data-paper-data="{&quot;isPaintingLayer&quot;:true}" fill-rule="nonzero" stroke-linecap="butt" stroke-linejoin="miter" stroke-miterlimit="10" stroke-dasharray="" stroke-dashoffset="0" style="mix-blend-mode: normal"><path d="M232.55556,175.34722c0,-1.02786 0.83325,-1.86111 1.86111,-1.86111h11.16667c1.02786,0 1.86111,0.83325 1.86111,1.86111v9.30556c0,1.02786 -0.83325,1.86111 -1.86111,1.86111h-11.16667c-1.02786,0 -1.86111,-0.83325 -1.86111,-1.86111z" fill="url(#color-1)" stroke="none" stroke-width="1"/><path d="M235.59954,181.63371c0.16852,-0.1679 0.52817,-0.1666 0.72618,-0.03477l2.65573,1.73231l3.69898,-3.72331c0.15231,-0.15188 0.38775,-0.1865 0.58007,-0.09016l3.79072,1.97342l-0.00162,3.52409c0,0.55229 -0.45135,1.00852 -1.00364,1.00852h-12.08793c-0.55229,0 -1.00364,-0.45623 -1.00364,-1.00852l-0.00162,-1.00651z" data-paper-data="{&quot;noHover&quot;:false,&quot;origItem&quot;:[&quot;Path&quot;,{&quot;applyMatrix&quot;:true,&quot;segments&quot;:[[466,368],[[466,370],[0,0],[0,1.10457]],[[468,372],[-1.10457,0],[0,0]],[[492,372],[0,0],[1.10457,0]],[[494,370],[0,1.10457],[0,0]],[494,363],[[486.446,359.106],[0,0],[-0.38463,-0.19267]],[[485.292,359.292],[0.30462,-0.30377],[0,0]],[477.872,366.712],[[472.552,363.168],[0,0],[-0.39602,-0.26366]],[[471.292,363.292],[0.33703,-0.3358],[0,0]]],&quot;closed&quot;:true,&quot;fillColor&quot;:[0,0,0,1]}]}" fill="url(#color-2)" stroke="none" stroke-width="0.5"/><path d="M238.052,177.5c0,0.82843 -0.72157,1.55 -1.55,1.55c-0.82843,0 -1.55,-0.72158 -1.55,-1.55c0,-0.82843 0.72158,-1.55 1.55,-1.55c0.82843,0 1.55,0.72158 1.55,1.55" data-paper-data="{&quot;noHover&quot;:false,&quot;origItem&quot;:[&quot;Path&quot;,{&quot;applyMatrix&quot;:true,&quot;segments&quot;:[[[476,355],[0,0],[0,-1.65685]],[[473,352],[1.65685,0],[-1.65685,0]],[[470,355],[0,-1.65685],[0,1.65685]],[[473,358],[-1.65685,0],[1.65685,0]],[[476,355],[0,1.65685],[0,0]]],&quot;fillColor&quot;:[0,0,0,1]}]}" fill="url(#color-3)" stroke="none" stroke-width="0.5"/><path d="M232.55556,175.34722c0,-1.02786 0.83325,-1.86111 1.86111,-1.86111h11.16667c1.02786,0 1.86111,0.83325 1.86111,1.86111v9.30556c0,1.02786 -0.83325,1.86111 -1.86111,1.86111h-11.16667c-1.02786,0 -1.86111,-0.83325 -1.86111,-1.86111z" fill="none" stroke="#1e1400" stroke-width="1"/></g></g></svg>