<svg version="1.1" xmlns="http://www.w3.org/2000/svg" xmlns:xlink="http://www.w3.org/1999/xlink" width="13" height="15.6203" viewBox="0,0,13,15.6203"><defs><radialGradient cx="241.32236" cy="176.18744" r="6.85469" gradientUnits="userSpaceOnUse" id="color-1"><stop offset="0" stop-color="#f6d44f"/><stop offset="1" stop-color="#ffcf13"/></radialGradient></defs><g transform="translate(-233.5,-172.18986)"><g data-paper-data="{&quot;isPaintingLayer&quot;:true}" fill-rule="nonzero" stroke-linejoin="miter" stroke-miterlimit="10" stroke-dasharray="" stroke-dashoffset="0" style="mix-blend-mode: normal"><g stroke-linecap="butt"><path d="M243.629,187.46008c-0.38363,0.26283 -0.84685,0.38376 -1.31,0.342l-7,-0.637c-1.02989,-0.09359 -1.81859,-0.95687 -1.819,-1.991v-10.348c0.00041,-1.03413 0.78911,-1.89741 1.819,-1.991l7,-0.637c0.55964,-0.05086 1.11485,0.13607 1.52978,0.51504c0.41493,0.37897 0.65128,0.91502 0.65122,1.47696v3.982c0.00011,0.53039 0.2109,1.03901 0.586,1.414l0.828,0.828c0.3751,0.37499 0.58589,0.88361 0.586,1.414v3.672c0,1.10457 -0.89543,2 -2,2l-0.87,-0.04zM238.98488,175.39993c0.13807,0 0.25,-0.11193 0.25,-0.25c0,-0.13807 -0.11193,-0.25 -0.25,-0.25c-0.13807,0 -0.25,0.11193 -0.25,0.25c0,0.13807 0.11193,0.25 0.25,0.25zM239.00231,176.08202c0.13807,0 0.25,-0.11193 0.25,-0.25c0,-0.13807 -0.11193,-0.25 -0.25,-0.25c-0.13807,0 -0.25,0.11193 -0.25,0.25c0,0.13807 0.11193,0.25 0.25,0.25z" data-paper-data="{&quot;index&quot;:null}" fill="#c5a525" stroke="#000000" stroke-width="0"/><path d="M245.21266,181.07033c0.18779,0.18774 0.30379,0.44485 0.30358,0.71039l-0.00304,3.76751c0.0001,0.54495 -0.45622,0.99096 -1.00107,1.00131l-0.14121,-0.00636c0.07933,-0.21533 0.11921,-0.44335 0.11988,-0.68402l0.00204,-5.49463z" data-paper-data="{&quot;noHover&quot;:false,&quot;origItem&quot;:[&quot;Path&quot;,{&quot;applyMatrix&quot;:true,&quot;segments&quot;:[[[238.88,174.293],[0,0],[-0.18774,-0.18779]],[[238.172,174],[0.26554,-0.00021],[0,0]],[[234.5,174],[0,0],[-0.54495,-0.0001]],[[233.5,174.981],[0.01035,-0.54485],[0,0]],[[233.506,175.12],[0,0],[0.21533,-0.07933]],[[234.19,175],[-0.24067,0.00067],[0,0]],[239.586,175]],&quot;closed&quot;:true,&quot;fillColor&quot;:[0,0,0,1]}],&quot;index&quot;:null}" fill="#ffcf13" stroke="none" stroke-width="0.5"/><path d="M243.47798,185.84948c0.00002,0.28088 -0.12183,0.55144 -0.32918,0.74091c-0.20735,0.18947 -0.4893,0.28554 -0.76904,0.26026l-7.04755,-0.63849c-0.51495,-0.04654 -0.91717,-0.48344 -0.91766,-1.00049v-10.42345c0.00048,-0.51705 0.40271,-0.95396 0.91766,-1.00049l7.04755,-0.63849c0.27974,-0.02528 0.56169,0.07079 0.76904,0.26026c0.20735,0.18947 0.3292,0.46003 0.32918,0.74091z" data-paper-data="{&quot;noHover&quot;:false,&quot;origItem&quot;:[&quot;Path&quot;,{&quot;applyMatrix&quot;:true,&quot;segments&quot;:[[[234.19,176],[0,0],[-0.28088,-0.00002]],[[233.45172,176.32544],[0.18947,-0.20735],[-0.18947,0.20735]],[[233.194,177.09],[-0.02528,-0.27974],[0,0]],[[233.831,184.09],[0,0],[0.04653,0.51495]],[[234.826,185],[-0.51705,-0.00049],[0,0]],[[245.174,185],[0,0],[0.51705,-0.00049]],[[246.169,184.09],[-0.04653,0.51495],[0,0]],[[246.806,177.09],[0,0],[0.02528,-0.27974]],[[246.54828,176.32544],[0.18947,0.20735],[-0.18947,-0.20735]],[[245.81,176],[0.28088,-0.00002],[0,0]]],&quot;closed&quot;:true,&quot;fillColor&quot;:[0,0,0,1]}],&quot;index&quot;:null}" fill="url(#color-1)" stroke="none" stroke-width="0.5"/></g><path d="M238.89802,173.10579v7.36301" fill="none" stroke="#c5a525" stroke-width="1" stroke-linecap="round"/><g fill="none" stroke="#c5a525" stroke-width="1" stroke-linecap="round"><g><path d="M238.06925,178.20872h0.82877"/><path d="M238.06925,176.56744h0.82877"/><path d="M238.89802,174.9603h-0.82877"/><path d="M238.06925,179.95872h0.82877"/></g><g data-paper-data="{&quot;index&quot;:null}"><path d="M239.72679,179.1688h-0.82877"/><path d="M238.89802,177.52752h0.82877"/><path d="M238.89802,175.92038h0.82877"/></g><g data-paper-data="{&quot;index&quot;:null}"><path d="M238.89802,174.29617h0.82877"/></g></g></g></g></svg>