<svg version="1.1" xmlns="http://www.w3.org/2000/svg" xmlns:xlink="http://www.w3.org/1999/xlink" width="17.5" height="17.24655" viewBox="0,0,17.5,17.24655"><defs><radialGradient cx="247.85681" cy="175.29593" r="8" gradientUnits="userSpaceOnUse" id="color-1"><stop offset="0" stop-color="#eece49"/><stop offset="1" stop-color="#caad31"/></radialGradient></defs><g transform="translate(-231.25,-171.37683)"><g data-paper-data="{&quot;isPaintingLayer&quot;:true}" stroke-linejoin="miter" stroke-miterlimit="10" stroke-dasharray="" stroke-dashoffset="0" style="mix-blend-mode: normal"><path d="M247.528,174.97301c0.28484,0.11368 0.47177,0.38932 0.472,0.696v8.662c-0.00023,0.30668 -0.18716,0.58232 -0.472,0.696l-7.25,2.9c-0.17878,0.0715 -0.37822,0.0715 -0.557,0l-7.25,-2.9c-0.28444,-0.11399 -0.47093,-0.38956 -0.471,-0.696v-8.662c0.00007,-0.30644 0.18656,-0.58201 0.471,-0.696l6.972,-2.789l0.01,-0.003l0.268,-0.108c0.17908,-0.07177 0.37892,-0.07177 0.558,0l0.269,0.108l0.01,0.003z" fill="none" fill-rule="evenodd" stroke="#927c1e" stroke-width="1.5" stroke-linecap="butt"/><path d="M247.528,174.9731c0.28484,0.11368 0.47177,0.38932 0.472,0.696v8.662c-0.00023,0.30668 -0.18716,0.58232 -0.472,0.696l-7.25,2.9c-0.17878,0.0715 -0.37822,0.0715 -0.557,0l-7.25,-2.9c-0.28444,-0.11399 -0.47093,-0.38956 -0.471,-0.696v-8.662c0.00007,-0.30644 0.18656,-0.58201 0.471,-0.696l6.972,-2.789l0.01,-0.003l0.268,-0.108c0.17908,-0.07177 0.37892,-0.07177 0.558,0l0.269,0.108l0.01,0.003z" data-paper-data="{&quot;index&quot;:null}" fill="url(#color-1)" fill-rule="evenodd" stroke="#927c1e" stroke-width="0" stroke-linecap="butt"/><path d="M244.20343,173.87456l-7.24568,3.09991l-1.64186,-0.6167l7.4506,-3.17328z" data-paper-data="{&quot;noHover&quot;:false,&quot;origItem&quot;:[&quot;Path&quot;,{&quot;applyMatrix&quot;:true,&quot;segments&quot;:[[484.808,348.00001],[472.5,352.92201],[467.692,351.00001],[466,351.67801],[466,352.47801],[479,357.67801],[479,373.52201],[480,373.92201],[481,373.52201],[481,357.68001],[494,352.48001],[494,351.68001],[492.308,351.00201],[480,355.92201],[475.192,354.00001],[487.5,349.07801]],&quot;closed&quot;:true,&quot;fillColor&quot;:[1,1,1],&quot;fillRule&quot;:&quot;evenodd&quot;}]}" fill="#e4cb62" fill-rule="evenodd" stroke-opacity="0.25229" stroke="#000000" stroke-width="0" stroke-linecap="butt"/><path d="M239.91176,187.61763v-8.76471l7.58824,-3.17647" fill="none" fill-rule="nonzero" stroke="#927c1e" stroke-width="1.5" stroke-linecap="round"/><path d="M239.82773,178.91175l-7.2689,-3.23529" fill="none" fill-rule="nonzero" stroke="#927c1e" stroke-width="1.5" stroke-linecap="round"/><path d="M247.52263,174.82518c0.28808,0.11497 0.47713,0.39375 0.47737,0.70391v8.7605c-0.00023,0.31017 -0.18928,0.58894 -0.47737,0.70391l-7.33244,2.93298c-0.18081,0.07231 -0.38252,0.07231 -0.56333,0l-7.33244,-2.93298c-0.28767,-0.11529 -0.47628,-0.39399 -0.47636,-0.70391v-8.7605c0.00007,-0.30992 0.18868,-0.58862 0.47636,-0.70391l7.05128,-2.82071l0.01011,-0.00303l0.27105,-0.10922c0.18112,-0.07259 0.38323,-0.07259 0.56435,0l0.27206,0.10922l0.01011,0.00303z" fill="none" fill-rule="evenodd" stroke="#927c1e" stroke-width="1" stroke-linecap="butt"/></g></g></svg>