<svg version="1.1" xmlns="http://www.w3.org/2000/svg" xmlns:xlink="http://www.w3.org/1999/xlink" width="15.5" height="15.5" viewBox="0,0,15.5,15.5"><defs><radialGradient cx="244.24216" cy="175.59" r="7" gradientUnits="userSpaceOnUse" id="color-1"><stop offset="0" stop-color="#eeff6c"/><stop offset="1" stop-color="#ffde00"/></radialGradient><radialGradient cx="245.67172" cy="180.65177" r="2.86253" gradientUnits="userSpaceOnUse" id="color-2"><stop offset="0" stop-color="#ded92d"/><stop offset="1" stop-color="#b5b000"/></radialGradient></defs><g transform="translate(-232.25,-172.25)"><g data-paper-data="{&quot;isPaintingLayer&quot;:true}" fill-rule="nonzero" stroke-linecap="butt" stroke-linejoin="miter" stroke-miterlimit="10" stroke-dasharray="" stroke-dashoffset="0" style="mix-blend-mode: normal"><path d="M245.5,173c0.82843,0 1.5,0.67157 1.5,1.5v6.086c-0.00008,0.39755 -0.15798,0.7788 -0.439,1.06l-4.915,4.914c-0.28103,0.28138 -0.66231,0.43965 -1.06,0.44h-6.086c-0.82843,0 -1.5,-0.67157 -1.5,-1.5v-11c0,-0.82843 0.67157,-1.5 1.5,-1.5z" fill="url(#color-1)" stroke="#4e4d32" stroke-width="1.5"/><path d="M240.60921,181.62409c0,-0.55228 0.46259,-1.01488 1.01488,-1.01488l4.4568,0.00505c0.10125,-0.00018 0.19516,0.06322 0.23393,0.15675c0.03877,0.09354 0.01877,0.20285 -0.05291,0.27435l-5.21654,5.21654c-0.07151,0.07169 -0.18082,0.09169 -0.27435,0.05291c-0.09354,-0.03877 -0.15693,-0.13268 -0.15675,-0.23393z" data-paper-data="{&quot;noHover&quot;:false,&quot;origItem&quot;:[&quot;Path&quot;,{&quot;applyMatrix&quot;:true,&quot;segments&quot;:[[[481,371.792],[0,0],[-0.00036,0.20251]],[[481.30854,372.25478],[-0.18707,-0.07755],[0.18707,0.07755]],[[481.854,372.146],[-0.14301,0.14338],[0,0]],[[492.146,361.854],[0,0],[0.14338,-0.14301]],[[492.25478,361.30854],[0.07755,0.18707],[-0.07755,-0.18707]],[[491.792,361],[0.20251,-0.00036],[0,0]],[[483,361],[0,0],[-1.10457,0]],[[481,363],[0,-1.10457],[0,0]]],&quot;closed&quot;:true,&quot;fillColor&quot;:[0,0,0,1]}]}" fill="url(#color-2)" stroke="#000000" stroke-width="0"/></g></g></svg>