<svg version="1.1" xmlns="http://www.w3.org/2000/svg" xmlns:xlink="http://www.w3.org/1999/xlink" width="15.23758" height="15.25" viewBox="-0.125,-0.125,15.23758,15.25"><defs><linearGradient x1="242.76313" y1="186.00161" x2="245.18992" y2="186.00161" gradientUnits="userSpaceOnUse" id="color-1"><stop offset="0" stop-color="#66687c"/><stop offset="1" stop-color="#73758c"/></linearGradient><radialGradient cx="245.46465" cy="176.04261" r="5.44018" gradientUnits="userSpaceOnUse" id="color-2"><stop offset="0" stop-color="#8588a2"/><stop offset="1" stop-color="#66687c"/></radialGradient></defs><g transform="translate(-232,-173)"><g data-paper-data="{&quot;isPaintingLayer&quot;:true}" fill-rule="nonzero" stroke-linecap="butt" stroke-linejoin="miter" stroke-miterlimit="10" stroke-dasharray="" stroke-dashoffset="0" style="mix-blend-mode: normal"><path d="M242.76313,186.00161c0,-0.67014 0.54326,-1.2134 1.2134,-1.2134c0.67014,0 1.21339,0.54326 1.21339,1.2134c0,0.67014 -0.54325,1.21339 -1.21339,1.21339c-0.67014,0 -1.2134,-0.54325 -1.2134,-1.21339z" fill="url(#color-1)" stroke="none" stroke-width="0"/><path d="M235.7575,186.00161c0,-0.67014 0.54325,-1.2134 1.21339,-1.2134c0.67014,0 1.21339,0.54326 1.21339,1.2134c0,0.67014 -0.54325,1.21339 -1.21339,1.21339c-0.67014,0 -1.21339,-0.54325 -1.21339,-1.21339z" fill="#66687c" stroke="none" stroke-width="0"/><path d="M232,173.5c0,-0.27614 0.22386,-0.5 0.5,-0.5h1.5c0.22949,0.00007 0.42947,0.15633 0.485,0.379l0.405,1.621h11.61c0.14973,0.00009 0.29155,0.06728 0.38645,0.1831c0.0949,0.11582 0.1329,0.26807 0.10356,0.4149l-1,5c-0.04501,0.2243 -0.23651,0.38945 -0.465,0.401l-9.397,0.472l0.287,1.529h8.585c0.27614,0 0.5,0.22386 0.5,0.5c0,0.27614 -0.22386,0.5 -0.5,0.5h-9c-0.24049,-0.00023 -0.44675,-0.17162 -0.491,-0.408l-1.499,-7.985l-0.4,-1.607h-1.11c-0.27614,0 -0.5,-0.22386 -0.5,-0.5M235.102,176l0.84,4.479l9.144,-0.459l0.804,-4.02zM237,184c-1.10457,0 -2,0.89543 -2,2c0,1.10457 0.89543,2 2,2c1.10457,0 2,-0.89543 2,-2c0,-1.10457 -0.89543,-2 -2,-2M244,184c-1.10457,0 -2,0.89543 -2,2c0,1.10457 0.89543,2 2,2c1.10457,0 2,-0.89543 2,-2c0,-1.10457 -0.89543,-2 -2,-2M237,185c0.55229,0 1,0.44771 1,1c0,0.55229 -0.44771,1 -1,1c-0.55229,0 -1,-0.44771 -1,-1c0,-0.55229 0.44771,-1 1,-1M244,185c0.55229,0 1,0.44771 1,1c0,0.55229 -0.44771,1 -1,1c-0.55229,0 -1,-0.44771 -1,-1c0,-0.55229 0.44771,-1 1,-1" fill="#31323b" stroke="#31323b" stroke-width="0.25"/><path d="M245.93618,175.98083l-0.80357,4.05725l-9.23548,0.46298l-0.84131,-4.52024z" data-paper-data="{&quot;noHover&quot;:false,&quot;origItem&quot;:[&quot;Path&quot;,{&quot;applyMatrix&quot;:true,&quot;segments&quot;:[[470.204,352],[471.884,360.958],[490.172,360.04],[491.78,352]],&quot;closed&quot;:true,&quot;fillColor&quot;:[0,0,0,1]}]}" fill="url(#color-2)" stroke="none" stroke-width="0.5"/></g></g></svg>