<svg version="1.1" xmlns="http://www.w3.org/2000/svg" xmlns:xlink="http://www.w3.org/1999/xlink" width="15.6203" height="13" viewBox="0,0,15.6203,13"><defs><radialGradient cx="243.81257" cy="178.67763" r="6.85469" gradientUnits="userSpaceOnUse" id="color-1"><stop offset="0" stop-color="#f6d44f"/><stop offset="1" stop-color="#ffcf13"/></radialGradient></defs><g transform="translate(-232.18984,-173.5)"><g data-paper-data="{&quot;isPaintingLayer&quot;:true}" fill-rule="nonzero" stroke-linecap="butt" stroke-linejoin="miter" stroke-miterlimit="10" stroke-dasharray="" stroke-dashoffset="0" style="mix-blend-mode: normal"><path d="M232.53993,176.37l-0.04,-0.87c0,-1.10457 0.89543,-2 2,-2h3.672c0.53039,0.00011 1.03901,0.2109 1.414,0.586l0.828,0.828c0.37499,0.3751 0.88361,0.58589 1.414,0.586h3.982c0.56194,-0.00006 1.09799,0.23629 1.47696,0.65122c0.37897,0.41493 0.5659,0.97014 0.51504,1.52978l-0.637,7c-0.09359,1.02989 -0.95687,1.81859 -1.991,1.819h-10.348c-1.03413,-0.00041 -1.89741,-0.78911 -1.991,-1.819l-0.637,-7c-0.04176,-0.46315 0.07917,-0.92637 0.342,-1.31z" fill="#c5a525" stroke="#000000" stroke-width="0"/><path d="M239.63548,175.50716l-5.49463,0.00204c-0.24067,0.00067 -0.46869,0.04055 -0.68402,0.11988l-0.00636,-0.14121c0.01035,-0.54485 0.45636,-1.00117 1.00131,-1.00107l3.76751,-0.00304c0.26554,-0.00021 0.52265,0.11579 0.71039,0.30358z" data-paper-data="{&quot;noHover&quot;:false,&quot;origItem&quot;:[&quot;Path&quot;,{&quot;applyMatrix&quot;:true,&quot;segments&quot;:[[[238.88,174.293],[0,0],[-0.18774,-0.18779]],[[238.172,174],[0.26554,-0.00021],[0,0]],[[234.5,174],[0,0],[-0.54495,-0.0001]],[[233.5,174.981],[0.01035,-0.54485],[0,0]],[[233.506,175.12],[0,0],[0.21533,-0.07933]],[[234.19,175],[-0.24067,0.00067],[0,0]],[239.586,175]],&quot;closed&quot;:true,&quot;fillColor&quot;:[0,0,0,1]}]}" fill="#ffcf13" stroke="none" stroke-width="0.5"/><path d="M245.8496,176.52201c0.28088,-0.00002 0.55144,0.12183 0.74091,0.32918c0.18947,0.20735 0.28554,0.4893 0.26026,0.76904l-0.63849,7.04755c-0.04653,0.51495 -0.48344,0.91718 -1.00049,0.91766h-10.42345c-0.51705,-0.00049 -0.95395,-0.40271 -1.00049,-0.91766l-0.63849,-7.04755c-0.02528,-0.27974 0.07079,-0.56169 0.26026,-0.76904c0.18947,-0.20735 0.46003,-0.3292 0.74091,-0.32918z" data-paper-data="{&quot;noHover&quot;:false,&quot;origItem&quot;:[&quot;Path&quot;,{&quot;applyMatrix&quot;:true,&quot;segments&quot;:[[[234.19,176],[0,0],[-0.28088,-0.00002]],[[233.45172,176.32544],[0.18947,-0.20735],[-0.18947,0.20735]],[[233.194,177.09],[-0.02528,-0.27974],[0,0]],[[233.831,184.09],[0,0],[0.04653,0.51495]],[[234.826,185],[-0.51705,-0.00049],[0,0]],[[245.174,185],[0,0],[0.51705,-0.00049]],[[246.169,184.09],[-0.04653,0.51495],[0,0]],[[246.806,177.09],[0,0],[0.02528,-0.27974]],[[246.54828,176.32544],[0.18947,0.20735],[-0.18947,-0.20735]],[[245.81,176],[0.28088,-0.00002],[0,0]]],&quot;closed&quot;:true,&quot;fillColor&quot;:[0,0,0,1]}]}" fill="url(#color-1)" stroke="none" stroke-width="0.5"/><path d="M240.00006,184.47232c-1.88804,0 -3.41859,-1.53055 -3.41859,-3.41859c0,-1.88804 1.53055,-3.41859 3.41859,-3.41859c1.88804,0 3.41859,1.53055 3.41859,3.41859c0,1.88804 -1.53055,3.41859 -3.41859,3.41859M237.0088,181.05372c0,1.65203 1.33924,2.99127 2.99127,2.99127c0.82602,0 1.49563,-0.66962 1.49563,-1.49563c0,-0.82602 -0.66962,-1.49563 -1.49563,-1.49563c-0.82602,0 -1.49563,-0.66962 -1.49563,-1.49563c0,-0.82602 0.66962,-1.49563 1.49563,-1.49563c-1.65203,0 -2.99127,1.33924 -2.99127,2.99127" fill="#c5a525" stroke="#c5a525" stroke-width="0.25"/></g></g></svg>