<svg version="1.1" xmlns="http://www.w3.org/2000/svg" xmlns:xlink="http://www.w3.org/1999/xlink" width="18.501" height="14.5" viewBox="0,0,18.501,14.5"><defs><radialGradient cx="247.33515" cy="175.16695" r="8.0005" gradientUnits="userSpaceOnUse" id="color-1"><stop offset="0" stop-color="#3d4143" stop-opacity="0"/><stop offset="1" stop-color="#3d4143"/></radialGradient><radialGradient cx="245.20534" cy="175.75009" r="6.81452" gradientUnits="userSpaceOnUse" id="color-2"><stop offset="0" stop-color="#212826"/><stop offset="1" stop-color="#161a1c"/></radialGradient><radialGradient cx="247.33515" cy="175.16695" r="8.0005" gradientUnits="userSpaceOnUse" id="color-3"><stop offset="0" stop-color="#4d5653"/><stop offset="1" stop-color="#3d4143"/></radialGradient><radialGradient cx="243.69188" cy="183.17021" r="5.191" gradientUnits="userSpaceOnUse" id="color-4"><stop offset="0" stop-color="#474e4c"/><stop offset="1" stop-color="#3d4143"/></radialGradient></defs><g transform="translate(-230.75001,-172.75)"><g data-paper-data="{&quot;isPaintingLayer&quot;:true}" fill-rule="nonzero" stroke-linecap="butt" stroke-linejoin="miter" stroke-miterlimit="10" stroke-dasharray="" stroke-dashoffset="0" style="mix-blend-mode: normal"><path d="M246.5,174c0.398,-0.00027 0.77979,0.15765 1.06131,0.43899c0.28152,0.28134 0.4397,0.66302 0.4397,1.06101v9c0,0.82843 -0.67157,1.5 -1.5,1.5h-0.191h-12.619h-0.191c-0.82843,0 -1.5,-0.67157 -1.5,-1.5v-9c0,-0.82843 0.67157,-1.5 1.5,-1.5zM236,179c0.55229,0 1,-0.44771 1,-1c0,-0.55229 -0.44771,-1 -1,-1c-0.55229,0 -1,0.44771 -1,1c0,0.55229 0.44771,1 1,1M244,179c0.55229,0 1,-0.44771 1,-1c0,-0.55229 -0.44771,-1 -1,-1c-0.55229,0 -1,0.44771 -1,1c0,0.55229 0.44771,1 1,1M238,178c0,0.55229 0.44771,1 1,1h2c0.55229,0 1,-0.44771 1,-1c0,-0.55229 -0.44771,-1 -1,-1h-2c-0.55229,0 -1,0.44771 -1,1" fill="url(#color-1)" stroke="#161a1c" stroke-width="2.5"/><path d="M233.18598,185.70571v-11.41141h13.62904v11.41141z" fill="url(#color-2)" stroke="#000000" stroke-width="0"/><path d="M246.5,174c0.398,-0.00027 0.77979,0.15765 1.06131,0.43899c0.28152,0.28134 0.4397,0.66302 0.4397,1.06101v9c0,0.82843 -0.67157,1.5 -1.5,1.5h-0.191l-1.863,-3.724c-0.08477,-0.16917 -0.25778,-0.276 -0.447,-0.276h-8c-0.18922,0 -0.36223,0.10683 -0.447,0.276l-1.862,3.724h-0.191c-0.82843,0 -1.5,-0.67157 -1.5,-1.5v-9c0,-0.82843 0.67157,-1.5 1.5,-1.5zM236,179c0.55229,0 1,-0.44771 1,-1c0,-0.55229 -0.44771,-1 -1,-1c-0.55229,0 -1,0.44771 -1,1c0,0.55229 0.44771,1 1,1M244,179c0.55229,0 1,-0.44771 1,-1c0,-0.55229 -0.44771,-1 -1,-1c-0.55229,0 -1,0.44771 -1,1c0,0.55229 0.44771,1 1,1M238,178c0,0.55229 0.44771,1 1,1h2c0.55229,0 1,-0.44771 1,-1c0,-0.55229 -0.44771,-1 -1,-1h-2c-0.55229,0 -1,0.44771 -1,1" fill="url(#color-3)" stroke="none" stroke-width="1"/><path d="M234.809,186l1.5,-3h7.382l1.5,3z" fill="url(#color-4)" stroke="none" stroke-width="1"/></g></g></svg>