<svg
  version="1.1"
  xmlns="http://www.w3.org/2000/svg"
  xmlns:xlink="http://www.w3.org/1999/xlink"
  width="12"
  height="16"
  viewBox="0,0,12,16">
  <g transform="translate(-234,-172)">
    <g
      data-paper-data='{"isPaintingLayer":true}'
      fill-rule="nonzero"
      stroke="none"
      stroke-linecap="butt"
      stroke-linejoin="miter"
      stroke-miterlimit="10"
      stroke-dasharray=""
      stroke-dashoffset="0"
      style="mix-blend-mode: normal">
      <path
        d="M241.293,172c0.26519,0.00006 0.51951,0.10545 0.707,0.293l3.707,3.707c0.18755,0.18749 0.29294,0.44181 0.293,0.707v9.293c0,1.10457 -0.89543,2 -2,2h-8c-1.10457,0 -2,-0.89543 -2,-2v-12c0,-1.10457 0.89543,-2 2,-2h5.293M241.5,175.5c0,0.55228 0.44772,1 1,1h2l-3,-3v2M240.5,179c0,-0.27614 -0.22386,-0.5 -0.5,-0.5c-0.27614,0 -0.5,0.22386 -0.5,0.5v1.5h-1.5c-0.27614,0 -0.5,0.22386 -0.5,0.5c0,0.27614 0.22386,0.5 0.5,0.5h1.5v1.5c0,0.27614 0.22386,0.5 0.5,0.5c0.27614,0 0.5,-0.22386 0.5,-0.5v-1.5h1.5c0.27614,0 0.5,-0.22386 0.5,-0.5c0,-0.27614 -0.22386,-0.5 -0.5,-0.5h-1.5v-1.5"
        fill="#ffffff"
        stroke-width="1" />
      <path
        d="M241.45257,175.51581l0.01208,-2.05117l3.07071,3.07071l-2.05117,0.01208c-0.55228,0 -1.03162,-0.47934 -1.03162,-1.03162"
        data-paper-data='{"noHover":false,"origItem":["Path",{"applyMatrix":true,"segments":[[[241.5,175.5],[0,0],[0,0.55228]],[[242.5,176.5],[-0.55228,0],[0,0]],[244.5,176.5],[241.5,173.5],[241.5,175.5]],"fillColor":[1,1,1]}]}'
        fill="#1e2124"
        stroke-width="0.5" />
      <path
        d="M240.51213,178.95149l0.02323,1.51315l1.51315,0.02323c0.27614,0 0.50149,0.23599 0.50149,0.51213c0,0.27614 -0.22535,0.51213 -0.50149,0.51213l-1.51315,0.02323l-0.02323,1.51315c0,0.27614 -0.23599,0.50149 -0.51213,0.50149c-0.27614,0 -0.51213,-0.22535 -0.51213,-0.50149l-0.02323,-1.51315l-1.51315,-0.02323c-0.27614,0 -0.50149,-0.23599 -0.50149,-0.51213c0,-0.27614 0.22535,-0.51213 0.50149,-0.51213l1.51315,-0.02323l0.02323,-1.51315c0,-0.27614 0.23599,-0.50149 0.51213,-0.50149c0.27614,0 0.51213,0.22535 0.51213,0.50149"
        data-paper-data='{"noHover":false,"origItem":["Path",{"applyMatrix":true,"segments":[[[240.5,179],[0,0],[0,-0.27614]],[[240,178.5],[0.27614,0],[-0.27614,0]],[[239.5,179],[0,-0.27614],[0,0]],[239.5,180.5],[[238,180.5],[0,0],[-0.27614,0]],[[237.5,181],[0,-0.27614],[0,0.27614]],[[238,181.5],[-0.27614,0],[0,0]],[239.5,181.5],[[239.5,183],[0,0],[0,0.27614]],[[240,183.5],[-0.27614,0],[0.27614,0]],[[240.5,183],[0,0.27614],[0,0]],[240.5,181.5],[[242,181.5],[0,0],[0.27614,0]],[[242.5,181],[0,0.27614],[0,-0.27614]],[[242,180.5],[0.27614,0],[0,0]],[240.5,180.5],[240.5,179]],"fillColor":[1,1,1]}]}'
        fill="#1e2124"
        stroke-width="0.5" />
    </g>
  </g>
</svg>
