<svg
  version="1.1"
  xmlns="http://www.w3.org/2000/svg"
  xmlns:xlink="http://www.w3.org/1999/xlink"
  width="15.6213"
  height="13"
  viewBox="0,0,15.6213,13">
  <g transform="translate(-232.18891,-173)">
    <g
      data-paper-data='{"isPaintingLayer":true}'
      fill-rule="nonzero"
      stroke="none"
      stroke-linecap="butt"
      stroke-linejoin="miter"
      stroke-miterlimit="10"
      stroke-dasharray=""
      stroke-dashoffset="0"
      style="mix-blend-mode: normal">
      <path
        d="M241.828,175h3.982c0.56195,-0.00006 1.09799,0.23629 1.47696,0.65122c0.37897,0.41493 0.5659,0.97014 0.51504,1.52978l-0.637,7c-0.09359,1.02989 -0.95687,1.81859 -1.991,1.819h-10.349c-1.03413,-0.00041 -1.89741,-0.78911 -1.991,-1.819l-0.637,-7c-0.04176,-0.46314 0.07917,-0.92637 0.342,-1.31l-0.039,-0.871c0,-1.10457 0.89543,-2 2,-2h3.672c0.53039,0.00011 1.03902,0.2109 1.414,0.586l0.828,0.828c0.37499,0.3751 0.88361,0.58589 1.414,0.586M233.506,175.12c0.21466,-0.07933 0.44267,-0.11934 0.684,-0.12h5.396l-0.707,-0.707c-0.1875,-0.18755 -0.4418,-0.29295 -0.707,-0.293h-3.672c-0.54495,-0.0001 -0.98964,0.43615 -1,0.981z"
        fill="#ffffff"
        stroke-width="1" />
      <path
        d="M233.45047,174.98785c0.01036,-0.54485 0.45636,-1.00117 1.00131,-1.00107l3.76751,-0.00304c0.2652,0.00005 0.52189,0.11603 0.70939,0.30358l0.70681,0.71983l-5.49463,0.00204c-0.24133,0.00066 -0.46936,0.04055 -0.68402,0.11988z"
        data-paper-data='{"noHover":false,"origItem":["Path",{"applyMatrix":true,"segments":[[[233.506,175.12],[0,0],[0.21466,-0.07933]],[[234.19,175],[-0.24133,0.00066],[0,0]],[239.586,175],[[238.879,174.293],[0,0],[-0.1875,-0.18755]],[[238.172,174],[0.2652,0.00005],[0,0]],[[234.5,174],[0,0],[-0.54495,-0.0001]],[[233.5,174.981],[0.01036,-0.54485],[0,0]]],"closed":true,"fillColor":[0,0,0,1]}]}'
        fill="#1e2124"
        stroke-width="0.5" />
      <path
        d="M240.5,178.97491v1.5h1.5c0.27614,0 0.5,0.22386 0.5,0.5c0,0.27614 -0.22386,0.5 -0.5,0.5h-1.5v1.5c0,0.27614 -0.22386,0.5 -0.5,0.5c-0.27614,0 -0.5,-0.22386 -0.5,-0.5v-1.5h-1.5c-0.27614,0 -0.5,-0.22386 -0.5,-0.5c0,-0.27614 0.22386,-0.5 0.5,-0.5h1.5v-1.5c0,-0.27614 0.22386,-0.5 0.5,-0.5c0.27614,0 0.5,0.22386 0.5,0.5"
        fill="#1e2124"
        stroke-width="1" />
    </g>
  </g>
</svg>
