<svg version="1.1" xmlns="http://www.w3.org/2000/svg" xmlns:xlink="http://www.w3.org/1999/xlink" width="14" height="18" viewBox="0,0,14,18"><defs><radialGradient cx="244.97368" cy="176.25411" r="8" gradientUnits="userSpaceOnUse" id="color-1"><stop offset="0" stop-color="#a1b5b8"/><stop offset="1" stop-color="#edfdff"/></radialGradient><radialGradient cx="244.97368" cy="176.25411" r="8" gradientUnits="userSpaceOnUse" id="color-2"><stop offset="0" stop-color="#ffffff"/><stop offset="1" stop-color="#edfdff"/></radialGradient></defs><g transform="translate(-233,-171)"><g data-paper-data="{&quot;isPaintingLayer&quot;:true}" fill-rule="nonzero" stroke-linecap="butt" stroke-linejoin="miter" stroke-miterlimit="10" stroke-dasharray="" stroke-dashoffset="0" style="mix-blend-mode: normal"><path d="M240.75728,172c0,0 1.05522,0.10545 1.24272,0.293l3.707,3.707c0.18755,0.1875 0.29295,0.4418 0.293,0.707v9.293c0,1.10457 -0.89543,2 -2,2h-8c-1.10457,0 -2,-0.89543 -2,-2v-12c0,-1.10457 0.89543,-2 2,-2h4.88295" fill="url(#color-1)" stroke="#a1b5b8" stroke-width="2"/><path d="M241.293,172c0.2652,0.00006 0.5195,0.10545 0.707,0.293l3.707,3.707c0.18755,0.1875 0.29295,0.4418 0.293,0.707v9.293c0,1.10457 -0.89543,2 -2,2h-8c-1.10457,0 -2,-0.89543 -2,-2v-12c0,-1.10457 0.89543,-2 2,-2h5.293" fill="url(#color-2)" stroke="#000000" stroke-width="0"/><path d="M236.4515,181.67002c-0.27614,0 -0.5015,-0.23598 -0.5015,-0.51212c0,-0.27614 0.22536,-0.51212 0.5015,-0.51212h4.09701c0.27614,0 0.5015,0.23598 0.5015,0.51212c0,0.27614 -0.22536,0.51212 -0.5015,0.51212z" data-paper-data="{&quot;noHover&quot;:false,&quot;origItem&quot;:[&quot;Path&quot;,{&quot;applyMatrix&quot;:true,&quot;segments&quot;:[[[481,370],[0,0],[0.55228,0]],[[482,369],[0,0.55228],[0,-0.55228]],[[481,368],[0.55228,0],[0,0]],[[473,368],[0,0],[-0.55228,0]],[[472,369],[0,-0.55228],[0,0.55228]],[[473,370],[-0.55228,0],[0,0]]],&quot;closed&quot;:true,&quot;fillColor&quot;:[0,0,0,1]}]}" fill="#a1b5b8" stroke="#a1b5b8" stroke-width="0"/><path d="M235.95,179.23734c0,-0.27614 0.22437,-0.58651 0.50051,-0.58651h7.09899c0.27614,0 0.50051,0.23093 0.50051,0.50707c0,0.27614 -0.22437,0.50707 -0.50051,0.50707h-7.09899c-0.27614,0 -0.50051,-0.23093 -0.50051,-0.50707" data-paper-data="{&quot;noHover&quot;:false,&quot;origItem&quot;:[&quot;Path&quot;,{&quot;applyMatrix&quot;:true,&quot;segments&quot;:[[[472,365],[0,0],[0,0.55228]],[[473,366],[-0.55228,0],[0,0]],[[487,366],[0,0],[0.55228,0]],[[488,365],[0,0.55228],[0,-0.55228]],[[487,364],[0.55228,0],[0,0]],[[473,364],[0,0],[-0.55228,0]],[[472,365],[0,-0.55228],[0,0]]],&quot;fillColor&quot;:[0,0,0,1]}]}" fill="#a1b5b8" stroke="#a1b5b8" stroke-width="0"/><path d="M236.45051,177.66497c-0.27614,0 -0.50051,-0.23093 -0.50051,-0.50707c0,-0.27614 0.22437,-0.50707 0.50051,-0.50707h7.09899c0.27614,0 0.50051,0.23093 0.50051,0.50707c0,0.27614 -0.22437,0.50707 -0.50051,0.50707z" data-paper-data="{&quot;noHover&quot;:false,&quot;origItem&quot;:[&quot;Path&quot;,{&quot;applyMatrix&quot;:true,&quot;segments&quot;:[[[487,362],[0,0],[0.55228,0]],[[488,361],[0,0.55228],[0,-0.55228]],[[487,360],[0.55228,0],[0,0]],[[473,360],[0,0],[-0.55228,0]],[[472,361],[0,-0.55228],[0,0.55228]],[[473,362],[-0.55228,0],[0,0]]],&quot;closed&quot;:true,&quot;fillColor&quot;:[0,0,0,1]}]}" fill="#a1b5b8" stroke="#a1b5b8" stroke-width="0"/></g></g></svg>